<?xml version="1.0" encoding="UTF-8" standalone="no"?>
<svg
   width="55.348595"
   height="55.150383"
   viewBox="0 0 55.348595 55.150383"
   fill="none"
   version="1.1"
   id="svg3"
   sodipodi:docname="honorific_delegate_icon.svg"
   inkscape:export-filename="honorific_delegate_icon.svg"
   inkscape:export-xdpi="59.748253"
   inkscape:export-ydpi="59.748253"
   inkscape:version="1.3 (0e150ed6c4, 2023-07-21)"
   xmlns:inkscape="http://www.inkscape.org/namespaces/inkscape"
   xmlns:sodipodi="http://sodipodi.sourceforge.net/DTD/sodipodi-0.dtd"
   xmlns="http://www.w3.org/2000/svg"
   xmlns:svg="http://www.w3.org/2000/svg">
  <sodipodi:namedview
     id="namedview3"
     pagecolor="#ffffff"
     bordercolor="#000000"
     borderopacity="0.25"
     inkscape:showpageshadow="2"
     inkscape:pageopacity="0.0"
     inkscape:pagecheckerboard="0"
     inkscape:deskcolor="#d1d1d1"
     inkscape:zoom="8"
     inkscape:cx="71.875"
     inkscape:cy="52.6875"
     inkscape:window-width="1916"
     inkscape:window-height="1041"
     inkscape:window-x="1920"
     inkscape:window-y="35"
     inkscape:window-maximized="1"
     inkscape:current-layer="svg3" />
  <defs
     id="defs3">
    <filter
       id="filter0_d_601_530"
       x="0.39429101"
       y="0.25164399"
       width="141.858"
       height="141.858"
       filterUnits="userSpaceOnUse"
       color-interpolation-filters="sRGB">
      <feFlood
         flood-opacity="0"
         result="BackgroundImageFix"
         id="feFlood1" />
      <feColorMatrix
         in="SourceAlpha"
         type="matrix"
         values="0 0 0 0 0 0 0 0 0 0 0 0 0 0 0 0 0 0 127 0"
         result="hardAlpha"
         id="feColorMatrix1" />
      <feOffset
         dy="4.02434"
         id="feOffset1" />
      <feGaussianBlur
         stdDeviation="21.6309"
         id="feGaussianBlur1" />
      <feComposite
         in2="hardAlpha"
         operator="out"
         id="feComposite1" />
      <feColorMatrix
         type="matrix"
         values="0 0 0 0 0 0 0 0 0 0 0 0 0 0 0 0 0 0 0.04 0"
         id="feColorMatrix2" />
      <feBlend
         mode="normal"
         in2="BackgroundImageFix"
         result="effect1_dropShadow_601_530"
         id="feBlend2" />
      <feBlend
         mode="normal"
         in="SourceGraphic"
         in2="effect1_dropShadow_601_530"
         result="shape"
         id="feBlend3" />
    </filter>
    <clipPath
       clipPathUnits="userSpaceOnUse"
       id="clipPath5">
      <rect
         style="fill:#000000;stroke-width:0.872106"
         id="rect5"
         width="55.348595"
         height="55.150387"
         x="43.644295"
         y="39.675331" />
    </clipPath>
  </defs>
  <g
     filter="url(#filter0_d_601_530)"
     id="g1"
     clip-path="url(#clipPath5)"
     transform="translate(-43.644295,-39.675331)">
    <circle
       cx="71.323402"
       cy="67.156403"
       r="27.6674"
       fill="#e99d38"
       id="circle1" />
    <path
       d="m 84.7757,61.3298 c -0.2075,-0.181 -0.4641,-0.2962 -0.7373,-0.331 -0.2731,-0.0348 -0.5504,0.0124 -0.7967,0.1355 l -5.7739,2.8749 -4.8207,-8.0072 c -0.1239,-0.2055 -0.2988,-0.3754 -0.5077,-0.4934 -0.209,-0.118 -0.4448,-0.18 -0.6848,-0.18 -0.2399,0 -0.4758,0.062 -0.6847,0.18 -0.209,0.118 -0.3839,0.2879 -0.5078,0.4934 l -4.8206,8.0106 -5.7717,-2.8749 c -0.2457,-0.122 -0.5219,-0.1687 -0.7941,-0.1343 -0.2722,0.0344 -0.5281,0.1484 -0.7357,0.3278 -0.2076,0.1793 -0.3576,0.416 -0.4312,0.6802 -0.0735,0.2643 -0.0674,0.5444 0.0176,0.8053 l 4.2549,13.0359 c 0.0427,0.131 0.1144,0.2507 0.2096,0.3502 0.0952,0.0996 0.2116,0.1765 0.3405,0.2251 0.129,0.0485 0.2671,0.0675 0.4044,0.0555 0.1372,-0.012 0.2701,-0.0546 0.3886,-0.1248 0.0288,-0.0173 2.9692,-1.7112 8.1302,-1.7112 5.161,0 8.1015,1.6939 8.1279,1.71 0.1186,0.0709 0.2517,0.1141 0.3893,0.1266 0.1376,0.0124 0.2762,-0.0064 0.4055,-0.0549 0.1294,-0.0485 0.2462,-0.1255 0.3417,-0.2253 0.0955,-0.0998 0.1674,-0.2198 0.2101,-0.3512 L 85.184,62.8201 c 0.0875,-0.2609 0.0954,-0.5419 0.0227,-0.8073 -0.0727,-0.2654 -0.2227,-0.5031 -0.431,-0.683 z m -7.8197,9.2698 c -0.0375,0.2128 -0.1488,0.4056 -0.3143,0.5446 -0.1655,0.139 -0.3746,0.2153 -0.5907,0.2155 -0.0539,-1e-4 -0.1078,-0.0047 -0.161,-0.0138 -2.9385,-0.5044 -5.9415,-0.5044 -8.88,0 -0.119,0.021 -0.2409,0.0184 -0.3589,-0.0078 -0.118,-0.0261 -0.2297,-0.0753 -0.3286,-0.1446 -0.2,-0.1399 -0.3361,-0.3536 -0.3785,-0.5939 -0.0424,-0.2403 0.0124,-0.4877 0.1524,-0.6876 0.14,-0.1999 0.3536,-0.336 0.5939,-0.3784 3.1501,-0.5413 6.3694,-0.5413 9.5194,0 0.1194,0.0204 0.2336,0.0642 0.3361,0.1289 0.1024,0.0647 0.1911,0.149 0.2608,0.2481 0.0698,0.099 0.1193,0.2109 0.1458,0.3291 0.0264,0.1183 0.0292,0.2406 0.0082,0.3599 z"
       fill="#ffffff"
       id="path1" />
  </g>
</svg>
